<svg width="47" height="47" viewBox="0 0 47 47" fill="none" xmlns="http://www.w3.org/2000/svg">
<path fill-rule="evenodd" clip-rule="evenodd" d="M23.5 47C36.4787 47 47 36.4787 47 23.5C47 10.5213 36.4787 0 23.5 0C10.5213 0 0 10.5213 0 23.5C0 36.4787 10.5213 47 23.5 47Z" fill="#FF6660"/>
<path fill-rule="evenodd" clip-rule="evenodd" d="M17.1961 31.7357C16.6225 32.3093 15.6925 32.3093 15.1189 31.7357C14.5454 31.1621 14.5454 30.2321 15.1189 29.6585L21.3503 23.4272L15.1189 17.1958C14.5454 16.6222 14.5454 15.6922 15.1189 15.1187C15.6925 14.5451 16.6225 14.5451 17.1961 15.1187L23.4274 21.35L29.6588 15.1187C30.2324 14.5451 31.1624 14.5451 31.7359 15.1187C32.3095 15.6922 32.3095 16.6222 31.7359 17.1958L25.5046 23.4272L31.7359 29.6585C32.3095 30.2321 32.3095 31.1621 31.7359 31.7357C31.1624 32.3093 30.2324 32.3093 29.6588 31.7357L23.4274 25.5043L17.1961 31.7357Z" fill="white"/>
</svg>
