<svg width="47" height="47" viewBox="0 0 47 47" fill="none" xmlns="http://www.w3.org/2000/svg">
<path fill-rule="evenodd" clip-rule="evenodd" d="M23.5 47C36.4787 47 47 36.4787 47 23.5C47 10.5213 36.4787 0 23.5 0C10.5213 0 0 10.5213 0 23.5C0 36.4787 10.5213 47 23.5 47Z" fill="#32CB82"/>
<path fill-rule="evenodd" clip-rule="evenodd" d="M11.5565 23.8934C12.1301 23.3198 13.0601 23.3198 13.6337 23.8934L19.865 30.1248L33.3664 16.6234C33.9399 16.0499 34.8699 16.0499 35.4435 16.6234C36.0171 17.197 36.0171 18.127 35.4435 18.7006L21.9422 32.2019C20.795 33.3491 18.9351 33.3491 17.7879 32.2019L11.5565 25.9705C10.9829 25.3969 10.9829 24.467 11.5565 23.8934Z" fill="white"/>
</svg>
